HIERARCHY
ROOT Hips
{
	OFFSET 0.00000 0.00000 0.00000
	CHANNELS 6 Xposition Yposition Zposition Zrotation Yrotation Xrotation 
	JOINT LHipJoint
	{
		OFFSET 0 0 0
		CHANNELS 3 Zrotation Yrotation Xrotation
		JOINT LeftUpLeg
		{
			OFFSET 1.55766 -1.60504 1.11378
			CHANNELS 3 Zrotation Yrotation Xrotation
			JOINT LeftLeg
			{
				OFFSET 2.29047 -6.29302 0.00000
				CHANNELS 3 Zrotation Yrotation Xrotation
				JOINT LeftFoot
				{
					OFFSET 2.52265 -6.93093 0.00000
					CHANNELS 3 Zrotation Yrotation Xrotation
					JOINT LeftToeBase
					{
						OFFSET 0.17633 -0.48446 2.02656
						CHANNELS 3 Zrotation Yrotation Xrotation
						End Site
						{
							OFFSET 0.00000 -0.00000 1.04989
						}
					}
				}
			}
		}
	}
	JOINT RHipJoint
	{
		OFFSET 0 0 0
		CHANNELS 3 Zrotation Yrotation Xrotation
		JOINT RightUpLeg
		{
			OFFSET -1.48599 -1.60504 1.11378
			CHANNELS 3 Zrotation Yrotation Xrotation
			JOINT RightLeg
			{
				OFFSET -2.27280 -6.24448 0.00000
				CHANNELS 3 Zrotation Yrotation Xrotation
				JOINT RightFoot
				{
					OFFSET -2.50834 -6.89161 0.00000
					CHANNELS 3 Zrotation Yrotation Xrotation
					JOINT RightToeBase
					{
						OFFSET -0.26967 -0.74090 2.08741
						CHANNELS 3 Zrotation Yrotation Xrotation
						End Site
						{
							OFFSET -0.00000 -0.00000 1.10614
						}
					}
				}
			}
		}
	}
	JOINT LowerBack
	{
		OFFSET 0 0 0
		CHANNELS 3 Zrotation Yrotation Xrotation
		JOINT Spine
		{
			OFFSET 0.06481 2.02437 -0.08472
			CHANNELS 3 Zrotation Yrotation Xrotation
			JOINT Spine1
			{
				OFFSET 0.00015 1.96711 0.18069
				CHANNELS 3 Zrotation Yrotation Xrotation
				JOINT Neck
				{
					OFFSET 0 0 0
					CHANNELS 3 Zrotation Yrotation Xrotation
					JOINT Neck1
					{
						OFFSET -0.29961 1.68293 -0.13041
						CHANNELS 3 Zrotation Yrotation Xrotation
						JOINT Head
						{
							OFFSET 0.59697 1.61501 -0.14669
							CHANNELS 3 Zrotation Yrotation Xrotation
							End Site
							{
								OFFSET 0.22973 1.74906 -0.10148
							}
						}
					}
				}
				JOINT LeftShoulder
				{
					OFFSET 0 0 0
					CHANNELS 3 Zrotation Yrotation Xrotation
					JOINT LeftArm
					{
						OFFSET 3.37968 1.02893 0.31147
						CHANNELS 3 Zrotation Yrotation Xrotation
						JOINT LeftForeArm
						{
							OFFSET 5.19807 -0.00000 -0.00000
							CHANNELS 3 Zrotation Yrotation Xrotation
							JOINT LeftHand
							{
								OFFSET 3.09370 -0.00000 -0.00000
								CHANNELS 3 Zrotation Yrotation Xrotation
								JOINT LeftFingerBase
								{
									OFFSET 0 0 0
									CHANNELS 3 Zrotation Yrotation Xrotation
									JOINT LeftHandIndex1
									{
										OFFSET 0.67263 -0.00000 -0.00000
										CHANNELS 3 Zrotation Yrotation Xrotation
										End Site
										{
											OFFSET 0.54229 -0.00000 -0.00000
										}
									}
								}
								JOINT LThumb
								{
									OFFSET 0 0 0
									CHANNELS 3 Zrotation Yrotation Xrotation
									End Site
									{
										OFFSET 0.55057 -0.00000 0.55057
									}
								}
							}
						}
					}
				}
				JOINT RightShoulder
				{
					OFFSET 0 0 0
					CHANNELS 3 Zrotation Yrotation Xrotation
					JOINT RightArm
					{
						OFFSET -3.38254 0.96355 -0.16120
						CHANNELS 3 Zrotation Yrotation Xrotation
						JOINT RightForeArm
						{
							OFFSET -5.45222 -0.00000 -0.00000
							CHANNELS 3 Zrotation Yrotation Xrotation
							JOINT RightHand
							{
								OFFSET -3.01284 -0.00000 -0.00000
								CHANNELS 3 Zrotation Yrotation Xrotation
								JOINT RightFingerBase
								{
									OFFSET 0 0 0
									CHANNELS 3 Zrotation Yrotation Xrotation
									JOINT RightHandIndex1
									{
										OFFSET -0.62230 -0.00000 -0.00000
										CHANNELS 3 Zrotation Yrotation Xrotation
										End Site
										{
											OFFSET -0.50171 -0.00000 -0.00000
										}
									}
								}
								JOINT RThumb
								{
									OFFSET 0 0 0
									CHANNELS 3 Zrotation Yrotation Xrotation
									End Site
									{
										OFFSET -0.50937 -0.00000 0.50937
									}
								}
							}
						}
					}
				}
			}
		}
	}
}
MOTION
Frames: 5
Frame Time: .0083333
-4.7448 15.2400 37.3400 -170.9190 -62.8990 187.8970 0.0000 0.0000 0.0000 -22.4487 -3.5500 -42.9439 6.0160 14.4438 45.0459 1.4497 1.7059 -23.4230 0.0406 -1.3003 -3.5755 0.0000 0.0000 0.0000 27.2045 -8.3726 -18.7531 -7.9081 -16.0513 52.2311 0.1760 7.5710 1.1407 -2.7206 10.2284 -29.7197 5.7726 5.0183 -1.8138 0.3697 6.5840 -7.0043 -2.9763 2.8618 -5.6818 -27.0524 -1.7096 6.3214 44.5353 -11.0173 10.2366 25.6531 -7.4768 6.4832 0.0000 -0.0000 0.0000 -72.2062 6.8212 0.7395 26.3048 -37.5081 -9.0726 -0.0000 0.0000 -62.1526 28.8208 -7.2611 -3.9781 -7.1250 0.0000 -0.0000 1.4724 21.7065 -0.8237 0.0000 -0.0000 0.0000 86.4150 0.7101 7.4423 -31.9829 42.5336 -12.7293 0.0000 -0.0000 -31.5748 -47.0532 -33.3688 30.5801 7.1250 -0.0000 -0.0000 -26.0678 -72.5584 17.3833
-4.7564 15.2874 37.3237 -170.8520 -62.9851 187.7850 0.0000 0.0000 0.0000 -22.4369 -3.5276 -42.2854 5.7833 14.2150 44.1057 1.3987 1.8019 -23.0600 0.0426 -1.3322 -3.6633 0.0000 0.0000 0.0000 27.2709 -8.2468 -19.2771 -8.0687 -16.1696 52.8098 0.1672 7.3212 1.4487 -2.6731 10.1461 -29.4511 5.5552 4.9539 -1.7963 0.3808 6.4969 -7.0257 -2.8491 2.8281 -5.7451 -27.0543 -1.7682 6.3500 44.6197 -11.0750 10.0165 25.7032 -7.5219 6.4563 0.0000 -0.0000 0.0000 -72.3978 6.7644 1.6773 26.3068 -37.5101 -9.0738 -0.0000 0.0000 -61.5310 28.5565 -7.4796 -4.0523 -7.1250 0.0000 -0.0000 1.2670 21.4793 -0.7152 0.0000 -0.0000 0.0000 86.2383 0.5731 9.3192 -32.6028 43.0225 -13.1503 0.0000 -0.0000 -31.5572 -47.1224 -32.9478 30.3591 7.1250 -0.0000 -0.0000 -26.0330 -72.1139 17.1123
-4.7676 15.3330 37.3071 -170.7530 -63.0741 187.6420 0.0000 0.0000 0.0000 -22.4121 -3.4776 -41.6507 5.5603 13.9883 43.1904 1.3493 1.8782 -22.6953 0.0465 -1.3918 -3.8274 0.0000 0.0000 0.0000 27.3502 -8.1328 -19.8145 -8.2209 -16.2794 53.3546 0.1637 7.2368 1.4829 -2.6417 10.0911 -29.2722 5.3407 4.8775 -1.7789 0.4059 6.3941 -7.0434 -2.7082 2.7871 -5.8063 -27.0636 -1.8178 6.3651 44.6969 -11.1157 9.8087 25.7513 -7.5562 6.4268 0.0000 0.0000 0.0000 -72.5953 6.7364 2.6777 26.3274 -37.5302 -9.0864 -0.0000 0.0000 -60.9207 28.3110 -7.6801 -4.1177 -7.1250 0.0000 -0.0000 1.0769 21.2719 -0.6129 0.0000 0.0000 0.0000 86.0555 0.4470 11.1759 -33.2373 43.5116 -13.5852 0.0000 -0.0000 -31.4174 -47.1710 -32.5131 30.1073 7.1250 -0.0000 -0.0000 -25.9444 -71.6461 16.7916
-4.7783 15.3766 37.2903 -170.6170 -63.1710 187.4690 0.0000 0.0000 0.0000 -22.3714 -3.4079 -41.0462 5.3484 13.7657 42.3070 1.3027 1.9287 -22.3360 0.0513 -1.4620 -4.0209 0.0000 0.0000 0.0000 27.4484 -8.0263 -20.3634 -8.3599 -16.3777 53.8488 0.1651 7.3139 1.2117 -2.6308 10.0720 -29.2102 5.1368 4.7970 -1.7646 0.4363 6.2857 -7.0602 -2.5669 2.7431 -5.8643 -27.0630 -1.8644 6.3798 44.7712 -11.1469 9.5968 25.7904 -7.5837 6.3893 -0.0000 -0.0000 0.0000 -72.7896 6.7199 3.7369 26.3638 -37.5657 -9.1086 -0.0000 0.0000 -60.3353 28.0922 -7.8581 -4.1739 -7.1250 0.0000 -0.0000 0.9079 21.0885 -0.5205 -0.0000 -0.0000 0.0000 85.8750 0.3219 13.0109 -33.8852 43.9995 -14.0332 0.0000 -0.0000 -31.1842 -47.1550 -32.1768 29.8635 7.1250 -0.0000 -0.0000 -25.7614 -71.2665 16.4577
-4.7890 15.4178 37.2756 -170.4610 -63.3078 187.2900 0.0000 0.0000 0.0000 -22.3235 -3.3756 -40.4735 5.1482 13.5488 41.4592 1.2576 1.9719 -21.9804 0.0574 -1.5464 -4.2537 0.0000 0.0000 0.0000 27.5512 -7.9520 -20.9541 -8.4826 -16.4630 54.2829 0.1700 7.5491 0.6676 -2.6310 10.0723 -29.2110 4.9750 4.7065 -1.7601 0.4597 6.1633 -7.0803 -2.4543 2.6896 -5.9157 -27.0485 -1.9099 6.4004 44.8430 -11.1718 9.3759 25.8174 -7.6065 6.3420 -0.0000 -0.0000 0.0000 -72.9751 6.7117 4.8660 26.4067 -37.6075 -9.1347 -0.0000 0.0000 -59.7472 27.9233 -8.0225 -4.2303 -7.1250 0.0000 -0.0000 0.7760 20.9170 -0.4479 -0.0000 -0.0000 0.0000 85.6913 0.2005 14.8144 -34.5374 44.4789 -14.4882 0.0000 -0.0000 -30.8288 -47.0203 -31.9514 29.5923 7.1250 -0.0000 -0.0000 -25.3801 -70.9733 16.0432
